<svg xmlns="http://www.w3.org/2000/svg" viewBox="0 0 320 280" role="img" aria-label="Cute cat character">
  <defs>
    <linearGradient id="fur" x1="58" x2="262" y1="44" y2="232" gradientUnits="userSpaceOnUse">
      <stop offset="0" stop-color="#f6f1ea"/>
      <stop offset="1" stop-color="#cfd6e3"/>
    </linearGradient>
    <linearGradient id="accent" x1="107" x2="212" y1="88" y2="188" gradientUnits="userSpaceOnUse">
      <stop offset="0" stop-color="#f6c0c7"/>
      <stop offset="1" stop-color="#e99aaa"/>
    </linearGradient>
  </defs>
  <ellipse cx="160" cy="235" rx="92" ry="16" fill="#ccb9d8" opacity=".25"/>
  <path d="M79 214c-29-18-33-58-7-83 18-18 42-19 58-5" fill="none" stroke="#d6aeb9" stroke-width="20" stroke-linecap="round"/>
  <path d="M245 216c20-14 30-46 17-72-12-24-31-33-52-30" fill="none" stroke="#d6aeb9" stroke-width="20" stroke-linecap="round"/>
  <g>
    <path d="M82 140c0-42 35-76 78-76h0c43 0 78 34 78 76v33c0 27-22 49-49 49h-58c-27 0-49-22-49-49z" fill="url(#fur)" stroke="#7f8b99" stroke-width="5" stroke-linejoin="round"/>
    <path d="M104 85 118 43l24 47z" fill="#f3d2d7" stroke="#7f8b99" stroke-width="5" stroke-linejoin="round"/>
    <path d="M184 90 203 43l22 45z" fill="#f3d2d7" stroke="#7f8b99" stroke-width="5" stroke-linejoin="round"/>
    <ellipse cx="160" cy="141" rx="63" ry="48" fill="#fff" opacity=".55"/>
    <ellipse cx="136" cy="132" rx="10" ry="13" fill="#3d3d3d"/>
    <ellipse cx="184" cy="132" rx="10" ry="13" fill="#3d3d3d"/>
    <circle cx="140" cy="128" r="3" fill="#fff"/>
    <circle cx="188" cy="128" r="3" fill="#fff"/>
    <path d="M160 142c-5 0-8 3-8 7 0 4 3 7 8 7s8-3 8-7c0-4-3-7-8-7z" fill="url(#accent)"/>
    <path d="M160 150c-8 10-19 9-25 2m25-2c8 10 19 9 25 2" fill="none" stroke="#7f8b99" stroke-width="4" stroke-linecap="round"/>
    <path d="M106 145 73 137m33 17-29 9m110-16 32-9m-33 18 29 9" stroke="#7f8b99" stroke-width="3" stroke-linecap="round" opacity=".8"/>
    <rect x="95" y="176" width="130" height="42" rx="18" fill="#f7f0fb" stroke="#7f8b99" stroke-width="4"/>
    <ellipse cx="126" cy="198" rx="16" ry="12" fill="#fff" stroke="#7f8b99" stroke-width="4"/>
    <ellipse cx="194" cy="198" rx="16" ry="12" fill="#fff" stroke="#7f8b99" stroke-width="4"/>
    <path d="M125 218c2 12 9 20 24 22 13 2 25-4 31-13 9 8 21 12 35 11 15-1 23-8 27-20" fill="none" stroke="#7f8b99" stroke-width="4" stroke-linecap="round"/>
    <circle cx="252" cy="70" r="16" fill="#f5a7b7" opacity=".75"/>
    <path d="M255 65c6 0 10 5 10 10 0 8-10 14-18 21-8-7-18-13-18-21 0-5 4-10 10-10 4 0 7 2 8 5 1-3 4-5 8-5z" fill="#f3a8b8"/>
  </g>
</svg>
